<svg xmlns="http://www.w3.org/2000/svg" viewBox="0 0 34.95 1.15"><g id="Warstwa_2" data-name="Warstwa 2"><g id="Warstwa_1-2" data-name="Warstwa 1"><path d="M27,.94c-1.64,0-3.26.26-4.9.12a44.5,44.5,0,0,0-6.83,0,46.76,46.76,0,0,1-4.88,0c-.71,0-1.39,0-2.1,0-2.33.05-4.67.07-7,.1C.64,1.16.21,1,0,.63S.13.23.52.3A16.31,16.31,0,0,0,4.35.17C6,.12,7.71.11,9.38.17c2.07.07,4.14.1,6.21.12C16.72.3,17.74.12,18.82,0a18.74,18.74,0,0,1,3.35.1,45.2,45.2,0,0,0,6.48.07c1.47-.06,3,0,4.45,0a6.35,6.35,0,0,1,1.16,0c.38.07.8,0,.66.38s-.25.51-.87.52h-.17C31.61.86,29.31,1.09,27,.94Z"/></g></g></svg>