<svg xmlns="http://www.w3.org/2000/svg" viewBox="0 0 271.47 83.97"><defs><style>.cls-1{opacity:0.11;}</style></defs><g id="Warstwa_2" data-name="Warstwa 2"><g id="Warstwa_1-2" data-name="Warstwa 1"><g class="cls-1"><path d="M68.41,36.59a23.75,23.75,0,0,0,8.2,7.53A24.49,24.49,0,0,0,68.41,36.59Z"/><path d="M178.14,63.5v0h0s0,0,0,0Z"/><path d="M195.3,43.19,203,35.91a1.57,1.57,0,0,0,1.17-1.62,1.88,1.88,0,0,0-1.81,1.06h0a13.65,13.65,0,0,0-4.65,3.9A3,3,0,0,0,196,40.88h0C195.74,41.43,194.81,41.73,195.3,43.19Z"/><path d="M204.23,34.28l.05-.06-.1,0Z"/><path d="M65.7,30.65A49.21,49.21,0,0,1,71,34.38h0L79.25,42c.61.62,1,1.59,2.22,1.45.24-1.24-.78-1.61-1.45-2.19h0c-3.06-2.49-5.13-6-9-7.68a15,15,0,0,0-7.12-5.37C63.61,29.6,64.85,30.16,65.7,30.65Z"/><path d="M63.92,28.24s0,0,0-.06l0,0Z"/><path d="M73.94,29.31h0a19,19,0,0,0,7,5.24,15.91,15.91,0,0,0-5.21-5.24,13.56,13.56,0,0,0-6.49-4.42C69.66,27.42,72.36,27.84,73.94,29.31Z"/><polygon points="69.23 24.89 69.23 24.89 69.23 24.89 69.23 24.89 69.23 24.89"/><path d="M60.68,30.54a.51.51,0,0,0,0,.91c1.67,1.22,2.91,3.08,5.62,2.85-1.41-1.19-2.82-2.4-4.25-3.57A1.1,1.1,0,0,0,60.68,30.54Z"/><path d="M173.87,71.72h0c-2.46.8-4.2,2.64-6.41,3.81h0a73.94,73.94,0,0,1-13.56,5.7l-1.78.54-6.06,1-10.52,0c-.42-.72-1.1-.61-1.79-.5l-.55.46c.57.9,1.5.62,2.34.6l1.67.11c1.75.8,3.61.44,5.44.43,1.39-.07,2.85.38,4.14-.49a0,0,0,0,0,0,0,11.1,11.1,0,0,0,6.07-1,3.5,3.5,0,0,0,2.28-.61h0c4.34-1.41,9-2.23,12.39-5.46,2.82-.63,4.83-2.48,7-4a21.62,21.62,0,0,0,6-4.26l-.62-.73Z"/><path d="M77.31,44.87a15.18,15.18,0,0,0,4.89,5.44l5.89,5.6.85-.79-6-5.52A19.18,19.18,0,0,0,77.31,44.87Z"/><path d="M52.23,26.45l6.69,3.85A7.34,7.34,0,0,0,52.23,26.45Z"/><path d="M253.31,14.43l-4.12,0,.18.16a.35.35,0,0,1-.18-.16c-3.41-.65-6.49.44-9.57,1.56h0a2.63,2.63,0,0,0-1.72.6h0a4.21,4.21,0,0,0-3,1.11l-1.2.55h0a17,17,0,0,0-6.47,3.33l-1.73,1.14h0a5,5,0,0,0-2.49,1.58h0a37.33,37.33,0,0,0-7,5h0c-2.19,1.23-3.51,3.28-5.29,4.89A3.67,3.67,0,0,0,208.38,36h0a50.46,50.46,0,0,0-7.2,6.31c-.88.8-2.29,1.29-2.09,2.87,1.23-.05,1.66-.81,2.21-1.43h0c2.39-2.4,5.45-4.14,7.59-6.78h0l1.31-1h0A20.62,20.62,0,0,0,216.74,30c2.44-1.13,4.24-3.06,6.4-4.53,1.6-.18,2.28-1.6,3.53-2.25l1.92-1h0l5.85-3.28h0l1.74-.64h0a7.34,7.34,0,0,0,3-1.09,1.65,1.65,0,0,0,.54-.09h0a44.44,44.44,0,0,1,10.64-1.65h0l.61,0h0c2-.33,4,1.24,6.17.23A4.33,4.33,0,0,0,253.31,14.43Z"/><path d="M174.54,66.11h0c-2.8.39-4.61,2.25-6.56,3.88a16.83,16.83,0,0,0-4.08,2.24h0l-1.75,1.17h0A9.21,9.21,0,0,0,157.94,75a4.45,4.45,0,0,0-2.9,1.64h0A24,24,0,0,0,148,77.85h0l-12.37-.06s0,0,0,0c-.9-.67-2-.5-3-.54h0a4.55,4.55,0,0,1-2.78-.58h0l-8.46-3.25c-2.48-.55-4.06-2.6-6.42-3.36h0l-3-1.75h0c-.87-.87-1.61-1.92-3.06-2l-.73-.53h0a3.94,3.94,0,0,0-2.28-1.63h0c-1.16-.15-1.74-1-2.48-1.71h0L97.71,57.9c-.4-.38-.8-.76-1.21-1.13h0a53.1,53.1,0,0,0-10.15-9.29c.27,1.59,1.67,2.27,2.49,3.38a12,12,0,0,0,3.49,3.28h0a11.56,11.56,0,0,0,3.57,3.31h0L97,58.56c1.26,2,3.57,2.95,5.32,4.47a3.83,3.83,0,0,0,1.79,1.6l3,1.68a2.47,2.47,0,0,0,1.77,1.23h0a4.15,4.15,0,0,0,2.23,1.58h0a4.89,4.89,0,0,0,2.47,1.66h0A19.2,19.2,0,0,0,120,74.06h0c2.68,1.36,5.34,2.79,8.43,3.22h0a15.42,15.42,0,0,0,5.94,1.62h0a37.18,37.18,0,0,0,16.56-.46,9.66,9.66,0,0,0,4.12-1.18h0c1.61.3,2.5-1,3.71-1.5h0a8,8,0,0,0,4.09-1.71,2.09,2.09,0,0,0,1.75-1.13h0c1.92-.62,3.91-1.13,5.18-2.8h0l4.81-3.31c1.7-.6,3.16-1.43,3.53-3.28A3.48,3.48,0,0,0,174.54,66.11Z"/><path d="M205.72,45.16a7.06,7.06,0,0,0,4.56-3.84C207.74,42.11,206.79,43.69,205.72,45.16Z"/><path d="M96.28,62.81a6.45,6.45,0,0,0,4.36,3.72C99.79,64.39,98.47,63.54,96.28,62.81Z"/><path d="M20.7,15.52h0l16-2.78.25.06.25,0c1.52.88,3.19.39,4.79.45h0A88.33,88.33,0,0,1,52.66,16l4,1.82h0C59.08,19,61,21,63.91,21.51c1.42,1.61,2.88,3.16,5.32,3.38-.85-2.37-3-3.28-5.29-3.95h0c-2.19-1.7-4.1-3.81-7.14-4.29l-2.39-1.14a7.26,7.26,0,0,0-4.1-1.72h0l-8.14-1.65a19.46,19.46,0,0,0-8.75-.2,5.28,5.28,0,0,0-1,.21A35.42,35.42,0,0,0,20,14.93c-1.59.22-3.31,0-4.63,1.14a2.45,2.45,0,0,0-1.8.54,1.67,1.67,0,0,0-.59,0l-1.14-1.12h0c-.47-1.5-1.4-1.24-2.44-.56h0l-.58.52h0c-.86,1.15-1.25,2.21.56,2.9h0l1.24.42A7.65,7.65,0,0,0,10.87,20c1.12-.07,1-1.12,1.53-1.72l.64-.54h0a2.51,2.51,0,0,0,1.78-.49h0l2.34-.61h0A6.08,6.08,0,0,0,20.7,15.52Zm16-3.31h0Z"/><path d="M184,64l-2.95,2.33C183.05,66.52,184.12,65.83,184,64Z"/><path d="M104.68,69.06a2.73,2.73,0,0,0-2.36-1.65c-.13,0-.38.24-.36.33.2,1.16,1.27,1.42,2.22,1.8h0a3.73,3.73,0,0,0,3.48,1.67A2.9,2.9,0,0,0,104.68,69.06Z"/><path d="M107.66,71.21s0,0,0,0l0,0Z"/><path d="M123.1,79.53l-1.67-1.19h0c-.66-.74-1.57-.46-2.4-.52h0c-.2-.94-.94-1.13-1.82-1.1h0a2.64,2.64,0,0,0-1.76-1.14h0a3.12,3.12,0,0,0-1.76-1.19h0c-.58-.59-1.44-1.49-2.07-.67-.74,1,.54,1.18,1.31,1.42l1.88,1.07a3.22,3.22,0,0,0,1.8,1.08c.4.73,1.13.58,1.8.57.47.9,1.45.9,2.3,1.14.75.43,1.28,1.34,2.41,1h0c.84,1.16,2.16,1.23,3.47,1.34h0a13.78,13.78,0,0,0,6.61,1.44.83.83,0,0,0,.55-.45c-2-1-4.29-1.17-6.46-1.68A6.83,6.83,0,0,0,123.1,79.53Z"/><path d="M182.94,53.72h0c1.54-1,3.18-1.91,4.11-4.07A9.37,9.37,0,0,0,182.26,53a9.2,9.2,0,0,0-3.11,2.69h0c-2.77,1.38-4.72,3.68-7.07,5.52h0L161.52,67.8h0L158,69.63a82.11,82.11,0,0,1-10.66,3.29H137.9l-2.92-.1a2.22,2.22,0,0,0-1.72-.51h0l-10.15-3.74h0a1.75,1.75,0,0,0-.51-.14l-7.19-4.35c-2.09-1.35-3.63-3.32-5.92-4.43-.8-.82-1.54-1.74-2.93-1.62.11,1.27,1.36,1.59,2.18,2.27h0a17.86,17.86,0,0,0,5.89,4.44h0c2.3,1.62,4.46,3.46,7.26,4.35l1.2.51a28.51,28.51,0,0,0,8.33,3.23,9.28,9.28,0,0,0,3.5.68c1,.79,2.3.46,3.46.57a14.35,14.35,0,0,0,7.93,0h0l1.63-.16h0c3.83-.68,7.59-1.52,10.8-3.73,1.34.07,2.42-.26,2.9-1.57h0c4.38-1.32,7.58-4.32,11.19-6.74,2.93-1.25,4.72-3.75,7.08-5.62h0A7.89,7.89,0,0,0,182.94,53.72Z"/><path d="M193.52,49.15h0a30.78,30.78,0,0,0-4.76,4.35L187,55.15h0a56.71,56.71,0,0,0-5.3,4.29c-1.25,1.26-3.33,2-3.52,4.05,2.57-.69,3.82-3,6-4.23a3.41,3.41,0,0,0,2.14-1.85h0c.49-.53,1-1,1.46-1.58h0l1.1-1h0c2.05-1.63,4.25-3.1,5.87-5.15A3.59,3.59,0,0,0,197,47,6.75,6.75,0,0,0,193.52,49.15Z"/><path d="M35.06,6.43a3.61,3.61,0,0,0-1,.18,37.36,37.36,0,0,0-10.43,1.2h0l-1.78.55h0L16.55,10c-1.44,0-2.85,0-3.82,1.48,1.28.21,2.33.47,3.25-.35h0a26.66,26.66,0,0,0,6.55-1.64c.81-.08,1.7.1,2.36-.56,1.39-.2,2.9.39,4.18-.55h0c1.81.27,3.47-.63,5.25-.62h0l3.55,0-.57-.51h0a1.06,1.06,0,0,0,.57.51l2.82.11a7.2,7.2,0,0,0,3.67.53c.84.64,1.92.41,2.86.66h0c4.48,1.3,8.94,2.56,13,4.9,7.11,4.1,13.38,9.16,19.6,14.3h0l6.53,6.12h0A148.73,148.73,0,0,0,98.79,46.5c4.48,5,10,8.89,15.31,13a36.56,36.56,0,0,0,8.28,5.13h0a4.08,4.08,0,0,0,2.38,1.26h0c2.11,1.06,4,2.68,6.63,2.55a13.62,13.62,0,0,0,4.07,1.13,8.54,8.54,0,0,0,4.22.55H145a4.54,4.54,0,0,0,3.07-.53h0c8.45-1.32,15.32-5.55,21.84-10.35C181,51.1,190.7,41.55,200.83,32.44c11.35-10.2,23.09-19.73,38.33-24.6a3.71,3.71,0,0,0,2.44-.56h0l1.09-.12a4.78,4.78,0,0,0,3.05-.44h0l2.28-.1h6.31A5.52,5.52,0,0,0,249.77,5h0l-3,.06a6.62,6.62,0,0,0-3.68.49h0a.45.45,0,0,0-.45.05c-2.84.59-5.81.75-8.41,2.16h0c-4.36,1.06-8.17,3.21-11.91,5.4-12.48,7.31-22.41,17.35-32.9,26.8-11.11,10-21.91,20.44-36.22,26.7-1.33.5-2.89.37-4.06,1.3h0c-1.48,1-3.21.21-4.78.56l-5.72-.07L132,67.29a6.9,6.9,0,0,0-3.59-1.49h0l-1.57-.71-4.32-2.25h0A155.81,155.81,0,0,1,109,53c-2.2-2.47-5-4.23-7.76-6.12h0a3.89,3.89,0,0,0-1.69-1.62A99.37,99.37,0,0,0,87,33.14c-1.66-3-4.59-4.93-7.19-7.13a2.92,2.92,0,0,0-2.33-1.68l-2.25-1.68a4.35,4.35,0,0,0-3.08-2.75h0c-3.71-2.32-7-5.18-10.81-7.39-3.3-1.91-7-2.71-10.44-4.2h0a12.94,12.94,0,0,0-5.36-1.15h0l0,0c-1.09-.82-2.37-.49-3.59-.52l0,0A15.39,15.39,0,0,0,35.06,6.43ZM23.67,8.33Z"/><path d="M259.24,11.1h0l-3-.54h0a.69.69,0,0,0-.49-.06h0c-1.93-.88-4-.65-6-.53h0c-2.2,0-4.44-.4-6.56.54h0l-2.32.56h0a7.77,7.77,0,0,0-3.72,1h0a15.8,15.8,0,0,0-5.76,2.19l-2.31,1.26h0a7.39,7.39,0,0,0-3,1.57l-3.61,2.11h0A6.74,6.74,0,0,0,220.15,21h0L217,23.14a3.92,3.92,0,0,0-2.29,1.7h0l-3.52,2.62h0c-2.52,2.07-5.27,3.93-6.95,6.76,2.73-.54,4.06-2.69,5.77-4.4l1.27-1h0a15,15,0,0,0,4.15-3.3h0l2.36-1.68a10.27,10.27,0,0,0,3-2.19l2.46-1.6h0l3.57-2.2h0l3.37-1.74a1.45,1.45,0,0,0,1.2-1h0l7-2.37,3.69-1a5.24,5.24,0,0,0,2.86-.61h0l7.08,0,1.12.09h0l5.37,1.09c1,.74,2,.59,3.29.25A3.63,3.63,0,0,0,259.24,11.1Z"/><path d="M107.68,71.25h0s0,0,0-.05Z"/><path d="M107.73,71.26c.42,1.27,1.32,1.91,3.22,2A4.1,4.1,0,0,0,107.73,71.26Z"/><path d="M48.68,23.73a6.58,6.58,0,0,0-3.76-.95h0c-.54-.85-1.47-.57-2.27-.67h0A17.77,17.77,0,0,0,33,22.06a22.59,22.59,0,0,0-6.37,1.21c-1.69-.08-3.13.82-4.73,1.09-.79,0-1.56.11-1.92,1,1.31,0,2.59.42,3.74-.38h0A15.79,15.79,0,0,0,28,23.86h0c1.6.13,3.06-.48,4.59-.73h0a43,43,0,0,1,8.26-.44,9.88,9.88,0,0,0,4.15.48c.49,1,1.59.72,2.4,1.08a.64.64,0,0,1,.38-.15l-.38.15c1.08.12,2,1.45,3.49.5l-2.18-1Z"/><path d="M63.93,28.18h0v0Z"/><path d="M104.19,56.21h0c-4-4.11-7.7-8.55-12.47-12a31.83,31.83,0,0,0-5.21-5c-1.35-1.41-2.44-3.11-5-4,.77,2.23,2.44,3.21,3.7,4.48h0l5.3,5C94.94,49,99.1,53.38,104.08,57a2.24,2.24,0,0,0,2.42,1C106.61,56.41,105.41,56.3,104.19,56.21Z"/><path d="M106.55,58h0v0h0s0,0,.06,0,0,0,0-.05Z"/><path d="M.85,15.61a.79.79,0,0,0-.83.85c0,.32-.11.8.38.8s.91-.52,1.13-1A.59.59,0,0,0,.85,15.61Z"/><path d="M270,4.42h0a19.41,19.41,0,0,0-6.55-2.14l-2.31-.59c-1.83-1.15-4.09-.19-6-1h0c-1.05-1.06-2.4-.49-3.63-.55H248.1c-1,0-2.13-.38-3,.4h0c-1.39,1-3.32.31-4.74,1.27l-.6-.05a3.9,3.9,0,0,0-3,.5h0a8.82,8.82,0,0,0-4.14,1.53L229.06,5a1.19,1.19,0,0,0-1.19.51,4.91,4.91,0,0,0-2.44,1.1h0l-1.11.56a5.17,5.17,0,0,0-3.66,1.63h0l-5.89,3.71h0a2.87,2.87,0,0,0-1.71,1.24h0c-2.08,1.74-4.84,2.67-6.57,4.83a10.28,10.28,0,0,0-3,2.36h0L193,29.86l-8.89,7.72a23.21,23.21,0,0,0-4.1,3.88h0a46.17,46.17,0,0,0-6.09,5.41h0c-3.11,1.82-5.44,4.49-8.19,6.7h0l-.78.49h0c-1.31,1.35-3.56,1.56-4.56,3.28l-4.1,2.33-.63.41a6,6,0,0,0-3,1.18h0l-1.08.56a5.69,5.69,0,0,0-3.12,1h0l-1.59.73h0l-5.94-.1c-2.23-.28-4.61.28-6.64-1.09h0a10.48,10.48,0,0,0-3.43-1.12,2.22,2.22,0,0,0-1.63-.63h0A10.63,10.63,0,0,0,125,58.49h0a31.6,31.6,0,0,0-6-3.85h0l-5.36-3.87c-2.06-1.73-3.36-4.14-5.78-5.55l-1.21-1.12h0c-2.86-2.27-5.1-5.19-8.35-7.07a5.73,5.73,0,0,0-3.55-3.38l-.5-.5h0c-.45-2-2.66-2.43-3.8-3.81l-4-3.43h0c-.88-2.5-3.67-3.16-5.38-4.86a1.5,1.5,0,0,0-1.22-1l-.68-.63h0c-.41-1-1.7-.92-2.3-1.68h0L74.65,16h0l-4.17-2.83h0A13,13,0,0,0,64,9.91h0c-2-2.74-5.34-3.35-8.45-4.27a.66.66,0,0,1-.43.19l.43-.19-1.75-.55h0A1.88,1.88,0,0,0,51.51,5c.39.58,1,.59,1.66.6l1.2.55h0A45.75,45.75,0,0,0,63.29,10a18.55,18.55,0,0,0,7.07,4c.44,1.75,2,2.28,3.54,2.74a3.49,3.49,0,0,0,1.89,1.47L78.07,20h0l1.17,1.1h0l1.3,1h0l5.33,4.44h0a12.73,12.73,0,0,0,3.47,3.35h0a16.37,16.37,0,0,0,3.5,3.4h0a7.2,7.2,0,0,0,2.36,2.16h0l1.64,1.62h0l7.31,7.15c.6,1.11,2,1,2.9,1.69h0c.5,1.5,1.79,2.35,3,3.22h0a5.41,5.41,0,0,0,2.8,2.3h0a21.8,21.8,0,0,0,7.25,5.1,4.46,4.46,0,0,0,3.51,2.6,8.93,8.93,0,0,0,4.06,2.24,12.44,12.44,0,0,0,3.7,1.59,2,2,0,0,0,1.75.61h0a12.47,12.47,0,0,0,6,1.23h0l.62.11h0a9.62,9.62,0,0,0,5.86-.26h1.13c3.75-.41,6.9-2.18,10.07-3.89a10.73,10.73,0,0,0,3.59-2.08h0c2.52-.63,3.89-2.71,5.87-4a4.85,4.85,0,0,0,2.09-1.55l-.34.06a1,1,0,0,1,.34-.06,7.94,7.94,0,0,0,4.28-3.42c.88-1.26,2.75-1.66,3.26-3.25h0A17,17,0,0,0,183.54,40h0a41.3,41.3,0,0,0,7.61-6.37h0a173,173,0,0,0,13.7-12.5l-.1-.11h.05l0,.11a41.38,41.38,0,0,0,8.9-6.64l-.09-.08h0l.09.09c4.27-1.74,7.82-4.59,11.88-6.65a1.77,1.77,0,0,0,1.74-1.05s-.11-.06-.15-.11h.07l.08.11c.78-.14,1.69.08,2.29-.64,1.11-.74,2.66-.61,3.63-1.62l7-1.74,4.16-.56a6.24,6.24,0,0,0,3.11-.44H252c1.38.66,2.87.39,4.32.44h0L264.46,4a19.06,19.06,0,0,0,4.79,1.68c.72.54,1.71.94,2.14,0S270.74,4.54,270,4.42Z"/><path d="M61.44,27.21h0a2.59,2.59,0,0,0,2.44,1c.1-1.09-.76-1.42-1.62-1.75a3.13,3.13,0,0,0-1.82-1.12h0c-1.6-1.69-3.78-2.49-5.93-3.32a15.17,15.17,0,0,0-6.6-2.6,4.47,4.47,0,0,0-2.73-.64,3.69,3.69,0,0,0-2.5-.53h0a10.35,10.35,0,0,0-7,0h0c-1.65-1.17-3.24,0-4.86.1h0c-1.75.55-3.73.08-5.39,1h0a12,12,0,0,0-4.18,1.06c-.95,0-2-.15-2.57,1.07a6.1,6.1,0,0,0,3.81-.26h0l5.33-1.3a12.93,12.93,0,0,0,5.47-1l1.64-.11,5.32,0,3.57.5h0l2.82.66h0l7,2.81h0l6,3.29h0A2.79,2.79,0,0,0,61.44,27.21Z"/><path d="M196.6,53.27c-.56-.09-.83.34-1.15.8.13.16.25.47.42.51.58.1.87-.34,1.06-.74C197,53.72,196.75,53.29,196.6,53.27Z"/><path d="M191.69,57.35h0a10.35,10.35,0,0,0-4.68,4.4c-.74.28-1.94.5-1.32,1.44.44.67,1-.26,1.41-.67h0A18.07,18.07,0,0,0,192.38,58c.53-.35,1.53-.7.87-1.37S192.13,56.91,191.69,57.35Z"/><path d="M211.79,39.36c-.49.13-.9.39-.92.92a.43.43,0,0,0,.57.44,1.06,1.06,0,0,0,.93-.88C212.31,39.5,212.15,39.27,211.79,39.36Z"/><path d="M83.61,46a1,1,0,0,0,.94.81c.19,0,.4-.22.56-.32a1.12,1.12,0,0,0-.83-1.06C83.89,45.31,83.52,45.55,83.61,46Z"/><path d="M91.87,58.08a.46.46,0,0,0-.53.67.94.94,0,0,0,1,.72,2.22,2.22,0,0,0,.57-.18C92.66,58.49,92.38,58.14,91.87,58.08Z"/><path d="M192.54,44a.5.5,0,0,0,.66.6,1.1,1.1,0,0,0,.87-1.06c-.15-.09-.35-.33-.55-.33A1,1,0,0,0,192.54,44Z"/><path d="M204.18,34.24s0,0,0,0h0Z"/><path d="M51.49,5h0V5h0l0,0Z"/><path d="M50.32,3.9h0c-.86-.83-2-.43-3-.54a4.07,4.07,0,0,0-2.4-.5h0l-6.48-.62h0a18.89,18.89,0,0,0-8.19.56c-1,.53-2.26-.56-3.11.53h0a42.47,42.47,0,0,0-8.22,1.73H17.74a12.06,12.06,0,0,0-5.36,1.62A4.32,4.32,0,0,0,10,7.23c-.73.12-1.53.12-1.85,1,1.27,0,2.55.45,3.63-.48h0a4.84,4.84,0,0,0,2.94-.59h0l3-.61,1.82-1h0a34.63,34.63,0,0,0,8.81-1.71c1.2-.12,2.5.32,3.59-.51h0l5.32-.1,4,.1h0c1.07.83,2.37.39,3.57.54h0c1.7.76,3.58.74,5.38,1l1.15,0C51.49,4.28,51.07,3.94,50.32,3.9Z"/><path d="M236.08,22.57h0l-1.16.62h0l-1.14.59a1.36,1.36,0,0,0-1.2.54l-1.22.55h0a2.37,2.37,0,0,0-1.81.93l-2.26,1.3h0l-2,1.6h0a2.45,2.45,0,0,0-1.68,1.09h0c-.89,0-1.3.55-1.69,1.16-1.48,1-3.1,1.8-4.17,3.23h0c-1.4,1.15-3.18,2-4.25,4.09,2.32-.63,3.59-1.69,4.32-3.36,2-.59,3.34-2.08,4.83-3.34l1.61-1.22a3.38,3.38,0,0,0,1.81-1.2h0l2.35-1.52h0l1.88-1h0a2.08,2.08,0,0,0,1.72-1.05h0l1.15-.67,1.2-.51,1.71-.66,1.19-.51c.47-.13,1.12-.5.79-.83C237.51,21.79,236.71,22.06,236.08,22.57Z"/></g></g></g></svg>