<svg xmlns="http://www.w3.org/2000/svg" viewBox="0 0 424.47 131.3"><defs><style>.cls-1{opacity:0.11;}</style></defs><g id="Warstwa_2" data-name="Warstwa 2"><g id="Warstwa_1-2" data-name="Warstwa 1"><g class="cls-1"><path d="M107,57.21A37.23,37.23,0,0,0,119.78,69,38.16,38.16,0,0,0,107,57.21Z"/><path d="M278.54,99.29s0,0,0,0h.07s0,0,0-.06l-.06,0Z"/><path d="M305.37,67.53l12.05-11.38a2.46,2.46,0,0,0,1.84-2.54,2.94,2.94,0,0,0-2.83,1.66h0c-2.8,1.65-5.46,3.43-7.27,6.1a4.6,4.6,0,0,0-2.67,2.55h0C306.05,64.78,304.6,65.24,305.37,67.53Z"/><path d="M319.34,53.61a.76.76,0,0,1,.08-.11l-.16,0Z"/><path d="M102.73,47.92a80.42,80.42,0,0,1,8.21,5.83h0l13,12c.94,1,1.5,2.5,3.47,2.27.37-1.93-1.22-2.51-2.27-3.41h0c-4.78-3.91-8-9.38-14-12A23.49,23.49,0,0,0,100,44.15C99.46,46.28,101.4,47.16,102.73,47.92Z"/><path d="M100,44.15a.28.28,0,0,1,0-.09l-.07.07Z"/><path d="M115.61,45.83h0c3.1,3.34,6.42,6.43,10.94,8.19-1.93-3.46-4.9-6-8.16-8.19a21.14,21.14,0,0,0-10.13-6.91C108.92,42.87,113.15,43.54,115.61,45.83Z"/><polygon points="108.25 38.92 108.25 38.91 108.25 38.91 108.25 38.92 108.25 38.92"/><path d="M94.88,47.75a.8.8,0,0,0-.08,1.42c2.62,1.91,4.56,4.82,8.79,4.45-2.21-1.86-4.4-3.73-6.64-5.56A1.72,1.72,0,0,0,94.88,47.75Z"/><path d="M271.86,112.14h0c-3.84,1.25-6.57,4.14-10,6h0a114.71,114.71,0,0,1-21.2,8.92l-2.78.85-9.47,1.52-16.46.06c-.65-1.13-1.72-1-2.8-.79l-.86.71c.89,1.43,2.34,1,3.66,1l2.61.16c2.74,1.25,5.65.7,8.51.68,2.17-.11,4.46.59,6.47-.76h0c3.3.17,6.54,0,9.49-1.61,1.26-.08,2.56-.07,3.57-1h0c6.78-2.2,14-3.49,19.36-8.54,4.42-1,7.55-3.88,11-6.31a33.86,33.86,0,0,0,9.32-6.67l-1-1.14Z"/><path d="M120.88,70.16a23.86,23.86,0,0,0,7.64,8.5l9.22,8.76,1.32-1.24-9.39-8.63C127.11,74.7,124.47,72,120.88,70.16Z"/><path d="M81.66,41.36l10.46,6C89.94,43.37,86.34,41.52,81.66,41.36Z"/><path d="M396.07,22.56l-6.43,0,.27.25a.51.51,0,0,1-.27-.25c-5.34-1-10.16.7-15,2.45h0a4,4,0,0,0-2.69.93h0a6.57,6.57,0,0,0-4.63,1.74l-1.88.86h0a26.47,26.47,0,0,0-10.11,5.2l-2.7,1.78h0A7.73,7.73,0,0,0,348.78,38h0c-4.13,2.06-7.48,5-10.95,7.9h0c-3.42,1.92-5.48,5.12-8.28,7.64a5.8,5.8,0,0,0-3.73,2.83h0c-4.22,2.83-7.7,6.39-11.26,9.87-1.37,1.26-3.58,2-3.27,4.49,1.93-.08,2.6-1.27,3.46-2.24h0c3.73-3.75,8.52-6.47,11.87-10.59h0l2.05-1.53h0a32.16,32.16,0,0,0,10.22-9.45c3.83-1.77,6.63-4.79,10-7.09,2.49-.28,3.56-2.5,5.52-3.51l3-1.57h0l9.15-5.13h0l2.71-1h0a11.8,11.8,0,0,0,4.66-1.7,3,3,0,0,0,.85-.15h0a69.2,69.2,0,0,1,16.64-2.58h0l.95,0h0c3.14-.53,6.22,1.93,9.64.35C400.29,22.64,398.25,22.42,396.07,22.56Z"/><path d="M272.92,103.37h0c-4.39.61-7.21,3.52-10.27,6.07a25.84,25.84,0,0,0-6.38,3.5h0l-2.74,1.83h0a14.29,14.29,0,0,0-6.58,2.46c-1.76.47-3.51,1-4.53,2.56h0c-3.76.32-7.55.52-11.09,1.94h0L212,121.64s0,0,0,0c-1.4-1.05-3.08-.79-4.7-.84h0c-1.51,0-3.05.07-4.35-.89h0l-13.22-5.08c-3.88-.86-6.35-4.08-10-5.26h0L175,106.86h0c-1.36-1.36-2.5-3-4.77-3.19l-1.15-.82h0a6.06,6.06,0,0,0-3.56-2.55h0c-1.81-.24-2.72-1.62-3.88-2.68h0l-8.88-7.08-1.89-1.77h0c-4.45-5.69-10.1-10.17-15.88-14.54.43,2.5,2.61,3.55,3.91,5.28,1.29,2.2,3.41,3.63,5.45,5.13h0A17.87,17.87,0,0,0,150,89.81h0l1.77,1.76c2,3.16,5.58,4.61,8.31,7a6.09,6.09,0,0,0,2.8,2.5l4.62,2.62a3.8,3.8,0,0,0,2.77,1.92h0a6.33,6.33,0,0,0,3.49,2.47h0a7.57,7.57,0,0,0,3.85,2.6h0a30,30,0,0,0,10.08,5.13h0c4.2,2.13,8.35,4.36,13.19,5h0c2.85,1.63,6,2.12,9.29,2.53h0c8.68,1.5,17.33,1.68,25.89-.73a14.8,14.8,0,0,0,6.43-1.84h0c2.53.48,3.92-1.47,5.81-2.35h0a12.38,12.38,0,0,0,6.39-2.67,3.24,3.24,0,0,0,2.74-1.76h0c3-1,6.12-1.77,8.1-4.38h0l7.52-5.17c2.66-1,4.95-2.24,5.52-5.13C275.46,99.23,273.88,100.92,272.92,103.37Z"/><path d="M321.67,70.61a11,11,0,0,0,7.12-6C324.83,65.84,323.33,68.31,321.67,70.61Z"/><path d="M150.55,98.21a10.08,10.08,0,0,0,6.81,5.81C156,100.68,154,99.35,150.55,98.21Z"/><path d="M32.36,24.27h0l25-4.34.39.09.4,0c2.37,1.39,5,.61,7.49.71h0a136.41,136.41,0,0,1,16.72,4.36l6.2,2.84h0c3.83,1.85,6.9,5,11.37,5.75,2.23,2.51,4.52,4.94,8.33,5.27-1.34-3.7-4.64-5.13-8.27-6.16h0c-3.42-2.67-6.41-6-11.17-6.71l-3.73-1.79a11.47,11.47,0,0,0-6.42-2.69h0L65.92,19a30.45,30.45,0,0,0-13.69-.32,9,9,0,0,0-1.59.32,55.52,55.52,0,0,0-19.36,4.35c-2.48.35-5.17,0-7.24,1.78a3.87,3.87,0,0,0-2.81.85,2.58,2.58,0,0,0-.92,0l-1.79-1.75h0c-.72-2.35-2.18-1.94-3.81-.87h0l-.92.81h0c-1.34,1.79-1.95,3.45.88,4.53h0l1.93.65a13.52,13.52,0,0,0,.4,1.94c1.74-.1,1.6-1.76,2.39-2.68l1-.86h0A3.87,3.87,0,0,0,23.17,27h0L26.83,26h0A9.46,9.46,0,0,0,32.36,24.27Zm25-5.18,0,0h0Z"/><path d="M287.76,100l-4.6,3.64C286.21,104,287.9,102.94,287.76,100Z"/><path d="M163.68,108c-.8-1.39-1.83-2.53-3.7-2.58-.19,0-.58.37-.56.52.31,1.82,2,2.21,3.47,2.82h0c1.23,2,3.15,2.63,5.45,2.6C167.7,109.14,166.08,108.1,163.68,108Z"/><path d="M168.34,111.34s0,0,0,.06l.06-.05Z"/><path d="M192.47,124.35l-2.6-1.86h0c-1-1.15-2.46-.72-3.76-.81h0c-.31-1.48-1.46-1.76-2.83-1.72h0a4.16,4.16,0,0,0-2.77-1.78h0a4.86,4.86,0,0,0-2.75-1.86h0c-.91-.92-2.24-2.33-3.23-1-1.16,1.51.85,1.84,2.05,2.22l2.94,1.67a5.11,5.11,0,0,0,2.81,1.7c.63,1.13,1.76.89,2.81.87.74,1.42,2.27,1.43,3.61,1.79,1.17.68,2,2.11,3.76,1.5h0c1.31,1.81,3.38,1.92,5.42,2.08h0c3.3,1.36,6.62,2.6,10.34,2.26a1.31,1.31,0,0,0,.86-.71c-3.16-1.56-6.71-1.83-10.1-2.63A10.82,10.82,0,0,0,192.47,124.35Z"/><path d="M286,84h0c2.41-1.56,5-3,6.43-6.36-3.74,1-5.58,3.17-7.49,5.26a14.52,14.52,0,0,0-4.86,4.2h0c-4.34,2.16-7.38,5.76-11.06,8.64h0L252.56,106h0l-5.46,2.85c-5.35,2.28-11,3.62-16.66,5.15l-14.82,0-4.57-.16a3.48,3.48,0,0,0-2.68-.79h0l-15.88-5.85h0a2.7,2.7,0,0,0-.8-.21l-11.24-6.82c-3.26-2.09-5.67-5.19-9.24-6.92-1.27-1.27-2.42-2.72-4.59-2.53.17,2,2.12,2.49,3.4,3.55h0a28.46,28.46,0,0,0,9.22,6.94h0c3.6,2.53,7,5.4,11.34,6.8l1.89.79c4.13,2.14,8.29,4.25,13,5,1.79.53,3.54,1.24,5.48,1.06,1.62,1.25,3.58.72,5.41.89a22.22,22.22,0,0,0,12.39,0h0l2.56-.24h0c6-1.06,11.85-2.37,16.88-5.83,2.09.11,3.78-.41,4.54-2.45h0c6.83-2.06,11.84-6.77,17.49-10.54,4.58-2,7.38-5.86,11.06-8.8h0A12.21,12.21,0,0,0,286,84Z"/><path d="M302.59,76.85h0a47.66,47.66,0,0,0-7.44,6.8l-2.75,2.58h0c-2.79,2.21-5.83,4.21-8.3,6.71-2,2-5.2,3.1-5.5,6.33,4-1.08,6-4.72,9.34-6.61a5.37,5.37,0,0,0,3.35-2.89h0l2.28-2.48h0l1.72-1.51h0c3.2-2.55,6.65-4.84,9.17-8.06,1.67-.87,3.16-1.87,3.56-4.3A10.68,10.68,0,0,0,302.59,76.85Z"/><path d="M54.82,10.05a5.54,5.54,0,0,0-1.49.29c-5.58-.4-11,.72-16.33,1.87h0l-2.79.86h0l-8.34,2.54c-2.25,0-4.44,0-6,2.33,2,.33,3.65.72,5.09-.55h0a41.6,41.6,0,0,0,10.23-2.57c1.28-.12,2.67.16,3.7-.88,2.17-.31,4.53.61,6.53-.85h0c2.84.41,5.43-1,8.22-1h0l5.54,0-.89-.79h0l0,0v0a1.65,1.65,0,0,0,.89.79l4.41.18c1.8,1,3.78.84,5.74.82,1.31,1,3,.65,4.48,1h0c7,2,14,4,20.32,7.65,11.12,6.41,20.92,14.33,30.64,22.37h0L135,53.7h0a231.06,231.06,0,0,0,19.45,19c7,7.8,15.67,13.91,23.94,20.4a57.34,57.34,0,0,0,12.94,8h0a6.33,6.33,0,0,0,3.72,2h0c3.31,1.67,6.23,4.2,10.37,4,1.93,1.17,4.22,1.24,6.36,1.77,2.08,1.08,4.36.88,6.61.85h8.32c1.68.11,3.34.18,4.8-.83h0c13.2-2.06,23.95-8.67,34.14-16.19C283,79.91,298.17,65,314,50.72,331.77,34.77,350.13,19.88,374,12.25c1.34-.05,2.72.07,3.82-.87h0l1.71-.19c1.64.12,3.29.24,4.76-.68h0l3.55-.16h9.87a8.63,8.63,0,0,0-7.13-2.58h0l-4.61.09c-2-.08-4-.25-5.76.77h0a.72.72,0,0,0-.71.08c-4.44.92-9.08,1.17-13.14,3.38h0c-6.81,1.65-12.77,5-18.62,8.44-19.51,11.42-35,27.12-51.44,41.91-17.37,15.67-34.26,32-56.64,41.74-2.07.78-4.51.59-6.33,2h0c-2.32,1.59-5,.32-7.47.87l-8.94-.11-10.42-1.76a10.75,10.75,0,0,0-5.61-2.34h0l-2.45-1.1-6.77-3.52h0a243.23,243.23,0,0,1-21.19-15.4c-3.44-3.87-7.88-6.62-12.13-9.58h0a6,6,0,0,0-2.64-2.54C149.58,64,143.35,57.46,136.1,51.81c-2.6-4.72-7.18-7.7-11.24-11.15-.85-1.32-1.8-2.5-3.65-2.62l-3.51-2.63a6.83,6.83,0,0,0-4.82-4.29h0C107.07,27.49,102,23,96,19.56c-5.16-3-11-4.24-16.32-6.57h0c-2.59-1.41-5.5-1.56-8.38-1.79h0l0,0c-1.71-1.28-3.71-.77-5.62-.82l0,0A24.24,24.24,0,0,0,54.82,10.05ZM37,13Z"/><path d="M405.35,17.36h0l-4.63-.85h0a1.17,1.17,0,0,0-.76-.1h0c-3-1.36-6.23-1-9.42-.82h0c-3.45,0-7-.63-10.25.84h0l-3.64.87h0A12.11,12.11,0,0,0,370.84,19h0a24.83,24.83,0,0,0-9,3.43l-3.6,2h0a11.64,11.64,0,0,0-4.7,2.45l-5.64,3.3h0c-1.3.79-2.77,1.37-3.64,2.67h0l-4.86,3.41a6.14,6.14,0,0,0-3.58,2.66h0l-5.51,4.1h0c-3.93,3.23-8.24,6.15-10.85,10.56,4.26-.84,6.34-4.2,9-6.87l2-1.62h0a23.23,23.23,0,0,0,6.49-5.16h0l3.69-2.62a15.84,15.84,0,0,0,4.77-3.42l3.85-2.5h0l5.58-3.45h0l5.28-2.72A2.28,2.28,0,0,0,362,23.58h0l11-3.71,5.78-1.56c1.54-.13,3.15,0,4.48-.95h0l11.06,0,1.75.13h0l8.4,1.71c1.58,1.16,3.19.92,5.15.4A5.64,5.64,0,0,0,405.35,17.36Z"/><path d="M168.36,111.4l.09,0s0,0,0-.07Z"/><path d="M168.45,111.42c.66,2,2.06,3,5,3.17C171.93,112.51,170.51,111.53,168.45,111.42Z"/><path d="M76.11,37.1a10.33,10.33,0,0,0-5.87-1.49h0c-.85-1.32-2.3-.88-3.55-1h0c-5-1.19-10-1.66-15.09-.08-3.48-.1-6.69,1-10,1.9-2.65-.14-4.89,1.27-7.4,1.69-1.24.05-2.43.18-3,1.59,2.05.07,4,.66,5.85-.6h0c2.24-.49,4.59-.65,6.64-1.76h0c2.49.21,4.78-.74,7.17-1.13h0a67.17,67.17,0,0,1,12.91-.7,15.18,15.18,0,0,0,6.49.76c.77,1.5,2.5,1.13,3.75,1.68a1.16,1.16,0,0,1,.6-.23l-.6.23c1.7.2,3.09,2.27,5.47.79l-3.42-1.6Z"/><path d="M100,44.06a.22.22,0,0,0-.08,0s0,0,0,.06Z"/><path d="M162.92,87.88h0c-6.31-6.41-12-13.36-19.5-18.73a49,49,0,0,0-8.15-7.87c-2.1-2.21-3.81-4.87-7.75-6.2,1.2,3.49,3.81,5,5.79,7h0L141.58,70c6.88,6.57,13.37,13.5,21.16,19.18.85,1.42,2.22,1.69,3.78,1.5C166.7,88.2,164.82,88,162.92,87.88Z"/><path d="M166.6,90.65h-.08s0,0,0,.07h0s.06,0,.1,0,0,0,0-.07Z"/><path d="M1.33,24.4A1.26,1.26,0,0,0,0,25.74C0,26.24-.14,27,.63,27c1,0,1.41-.82,1.77-1.59A.94.94,0,0,0,1.33,24.4Z"/><path d="M422.09,6.91h0a30.88,30.88,0,0,0-10.24-3.33l-3.61-.93c-2.87-1.8-6.39-.29-9.35-1.63h0c-1.65-1.65-3.75-.76-5.67-.86h0l-5.29,0c-1.62,0-3.33-.59-4.76.63h0c-2.19,1.59-5.2.49-7.42,2l-.94-.08a6.07,6.07,0,0,0-4.76.78h0a13.73,13.73,0,0,0-6.46,2.38l-5.43,2a1.88,1.88,0,0,0-1.87.8,7.66,7.66,0,0,0-3.81,1.73h0l-1.73.87A8.11,8.11,0,0,0,345,13.8h0l-9.2,5.79h0a4.53,4.53,0,0,0-2.67,1.94h0c-3.26,2.71-7.57,4.17-10.27,7.54a16,16,0,0,0-4.72,3.71h0L301.72,46.69l-13.9,12.07a36.21,36.21,0,0,0-6.42,6.06h0c-3.59,2.42-6.47,5.52-9.52,8.46h0c-4.87,2.86-8.51,7-12.81,10.49h0l-1.22.76h0c-2,2.11-5.57,2.43-7.13,5.12l-6.4,3.65-1,.64a9.23,9.23,0,0,0-4.71,1.85h0l-1.7.87A9,9,0,0,0,232,98.31h0l-2.49,1.14h0l-9.29-.16c-3.48-.45-7.21.43-10.38-1.7h0c-1.58-1.14-3.55-1.23-5.36-1.75a3.46,3.46,0,0,0-2.55-1h0c-1.8-1.78-4.19-2.56-6.55-3.4h0a50.13,50.13,0,0,0-9.38-6h0l-8.38-6.06c-3.22-2.71-5.26-6.48-9-8.68l-1.89-1.76h0c-4.48-3.56-8-8.12-13.06-11.07a9,9,0,0,0-5.55-5.28l-.79-.78h0c-.7-3.09-4.15-3.8-5.94-5.95l-6.21-5.37h0c-1.38-3.91-5.75-4.93-8.42-7.59a2.32,2.32,0,0,0-1.91-1.56l-1.07-1h0c-.64-1.54-2.65-1.45-3.58-2.63h0L116.72,25h0l-6.51-4.43h0a20.34,20.34,0,0,0-10.11-5.12h0c-3.2-4.29-8.34-5.25-13.2-6.69a1.06,1.06,0,0,1-.68.3l.68-.3-2.75-.86h0a2.94,2.94,0,0,0-3.62-.1c.62.91,1.62.92,2.61.93L85,9.64h0a72.08,72.08,0,0,0,13.94,6A29.12,29.12,0,0,0,110,21.87c.68,2.72,3.06,3.56,5.53,4.28a5.43,5.43,0,0,0,3,2.29l3.57,2.79h0L123.9,33h0l2,1.6h0l8.34,6.94h0a20.16,20.16,0,0,0,5.42,5.23h0A25.82,25.82,0,0,0,145.16,52h0a11.3,11.3,0,0,0,3.69,3.38h0l2.56,2.52h0l11.42,11.18c.94,1.74,3.11,1.63,4.53,2.65h0c.78,2.35,2.8,3.68,4.77,5h0c1.15,1.52,2.33,3,4.38,3.59h0c3.33,3.22,6.81,6.24,11.33,8a7,7,0,0,0,5.49,4.05c1.88,1.55,3.78,3.06,6.36,3.51,1.67,1.33,3.79,1.77,5.77,2.49a3.22,3.22,0,0,0,2.75.94h0a19.64,19.64,0,0,0,9.35,1.94h0l1,.17h0c3.1.57,6.18.92,9.17-.41h1.78c5.86-.65,10.78-3.4,15.74-6.08,2.2-.58,3.87-2,5.61-3.25h0c3.93-1,6.08-4.24,9.18-6.28A7.67,7.67,0,0,0,263.29,83l-.53.1a1.91,1.91,0,0,1,.54-.1A12.43,12.43,0,0,0,270,77.69c1.38-2,4.3-2.61,5.1-5.09h0c5.23-2.06,8.84-5.79,11.9-10.08h0a64.9,64.9,0,0,0,11.89-10h0A272.24,272.24,0,0,0,320.3,33l-.15-.18h.07l.08.17c5-3,9.95-6.13,13.92-10.38l-.15-.11v0l.14.13c6.68-2.71,12.23-7.17,18.58-10.39,1.38.14,2.08-.7,2.71-1.64,0-.09-.16-.1-.22-.17h.1l.12.17c1.23-.23,2.65.13,3.58-1,1.74-1.15,4.16-.95,5.68-2.53l11-2.72,6.5-.87a9.81,9.81,0,0,0,4.86-.69H394c2.16,1,4.48.61,6.75.69h0l12.73,2.75c2.28,1.41,4.93,1.88,7.48,2.62,1.14.85,2.68,1.48,3.36,0C424.92,7.61,423.34,7.1,422.09,6.91Z"/><path d="M96.07,42.55h0c1.05,1,2.15,1.88,3.81,1.51.16-1.7-1.18-2.21-2.52-2.73a5,5,0,0,0-2.86-1.76h0c-2.5-2.64-5.9-3.89-9.28-5.18a23.5,23.5,0,0,0-10.3-4.08,7.07,7.07,0,0,0-4.28-1c-1.14-.92-2.53-.82-3.9-.83h0a16.24,16.24,0,0,0-11,0h0c-2.58-1.82-5.07,0-7.59.16h0c-2.75.86-5.84.13-8.44,1.61h0a19.22,19.22,0,0,0-6.53,1.66c-1.49.06-3.16-.22-4,1.67,2.22.35,4.12.5,5.94-.4h0l8.35-2c3,.32,5.77-.69,8.54-1.59l2.57-.17,8.32.05,5.58.78h0l4.4,1h0l11,4.4h0l9.31,5.13h0A4.36,4.36,0,0,0,96.07,42.55Z"/><path d="M307.4,83.29c-.88-.14-1.29.53-1.79,1.26.19.25.38.73.66.78.9.17,1.35-.52,1.65-1.14C308,84,307.64,83.32,307.4,83.29Z"/><path d="M299.73,89.67h0a16.32,16.32,0,0,0-7.32,6.9c-1.15.42-3,.78-2.07,2.24.69,1,1.58-.4,2.22-1h0c3.38-1.71,5.85-4.35,8.25-7.06.83-.54,2.39-1.1,1.35-2.14S300.42,89,299.73,89.67Z"/><path d="M331.15,61.55c-.77.19-1.41.61-1.43,1.44a.66.66,0,0,0,.89.68,1.67,1.67,0,0,0,1.45-1.37C332,61.76,331.72,61.4,331.15,61.55Z"/><path d="M130.74,71.91a1.51,1.51,0,0,0,1.46,1.27c.3,0,.62-.35.87-.5A1.71,1.71,0,0,0,131.78,71C131.17,70.85,130.6,71.22,130.74,71.91Z"/><path d="M143.65,90.82a.73.73,0,0,0-.83,1.05,1.49,1.49,0,0,0,1.6,1.12,3,3,0,0,0,.88-.29C144.88,91.46,144.44,90.91,143.65,90.82Z"/><path d="M301.05,68.87c-.16.65.39,1.09,1,.93a1.7,1.7,0,0,0,1.35-1.65c-.23-.15-.53-.52-.84-.52A1.54,1.54,0,0,0,301.05,68.87Z"/><path d="M319.26,53.54a.16.16,0,0,1,0,.07h.08Z"/><path d="M80.52,7.83h-.07s0,0,0,0h0l.07,0v0Z"/><path d="M78.68,6.09h0c-1.35-1.28-3.09-.66-4.67-.83a6.45,6.45,0,0,0-3.76-.8h0l-10.12-1h0a29.69,29.69,0,0,0-12.82.88c-1.51.83-3.52-.88-4.86.83h0a65.75,65.75,0,0,0-12.84,2.7h0l-1.87,0h0a18.85,18.85,0,0,0-8.38,2.54,6.74,6.74,0,0,0-3.66.88c-1.14.18-2.4.19-2.89,1.63,2-.06,4,.72,5.68-.75h0a7.61,7.61,0,0,0,4.59-.93h0l4.68-1,2.85-1.49h0A54.61,54.61,0,0,0,44.39,6.13c1.88-.19,3.91.5,5.61-.8h0l8.33-.16,6.32.16h0c1.68,1.31,3.71.62,5.58.85h0c2.66,1.19,5.6,1.15,8.42,1.61l1.8,0C80.52,6.69,79.86,6.17,78.68,6.09Z"/><path d="M369.13,35.28h0l-1.81,1h0l-1.77.92a2.17,2.17,0,0,0-1.89.85l-1.9.86h0a3.7,3.7,0,0,0-2.84,1.45l-3.53,2h0l-3.08,2.5h0a3.82,3.82,0,0,0-2.62,1.7h0c-1.4,0-2,.87-2.64,1.82-2.32,1.53-4.85,2.81-6.53,5h0c-2.19,1.81-5,3.09-6.65,6.39,3.64-1,5.62-2.63,6.76-5.24,3.17-.92,5.22-3.25,7.56-5.22l2.51-1.92a5.24,5.24,0,0,0,2.83-1.88h0l3.68-2.37h0l2.94-1.62h0a3.23,3.23,0,0,0,2.68-1.64h0l1.8-1,1.88-.81,2.67-1,1.86-.8c.74-.2,1.75-.79,1.24-1.3C371.37,34.07,370.11,34.49,369.13,35.28Z"/></g></g></g></svg>