<svg xmlns="http://www.w3.org/2000/svg" viewBox="0 0 119.76 1.86"><g id="Warstwa_2" data-name="Warstwa 2"><g id="Warstwa_1-2" data-name="Warstwa 1"><path d="M92.66,1.53c-5.62-.08-11.17.41-16.8.18-7.81-.31-15.54-.19-23.38.06-5.5.17-11.17.05-16.75,0-2.41,0-4.77-.06-7.19,0-8,.09-16,.11-24,.16C2.19,1.88.74,1.63.12,1-.31.58.45.37,1.78.49,6.31.92,10.53.33,14.9.27,20.67.2,26.42.19,32.16.28c7.09.11,14.17.16,21.27.19,3.88,0,7.38-.28,11.06-.41S72.2.05,76,.23c7.4.35,14.76.26,22.2.12,5.06-.1,10.19,0,15.27,0,1.34,0,2.54-.18,4,0,1.29.12,2.72.09,2.25.61s-.86.84-3,.85l-.58,0C108.33,1.39,100.45,1.77,92.66,1.53Z"/></g></g></svg>